# xmcd CD database file
#
# Track frame offsets:
#	150
#	17292
#	31338
#	49064
#	61432
#	78476
#	94506
#	107522
#	122356
#	134890
#	152202
#	165358
#	180726
#	197324
#	214464
#	223240
#
# Disc length: 3201 seconds
#
# Revision: 1
# Processed by: cddbd v1.5.2PL0 Copyright (c) Steve Scherf et al.
# Submitted via: CDex 1.51
#
DISCID=d60c7f10
DTITLE=Billie Holiday - [CD 05-10] - If The Moon Turns Green
DYEAR=1900
DGENRE=Jazz
TTITLE0=Autumn In New York  [1952]
TTITLE1=Love For Sale  [1952]
TTITLE2=Everything I Have Is Yours  [1952]
TTITLE3=Remember  [1952]
TTITLE4=Autumn In New York  [1952]
TTITLE5=Tenderly  [1952]
TTITLE6=If The Moon Turns Green  [1952]
TTITLE7=He's Funny That Way  [1952]
TTITLE8=My Man  [1952]
TTITLE9=Stormy Weather  [1952]
TTITLE10=Yesterdays  [1952]
TTITLE11=I Can't Face The Music  [1952]
TTITLE12=Lover Come Back To Me  [1952]
TTITLE13=Fine And Mellow  [1952]
TTITLE14=Lover Come Back To Me  [1952]
TTITLE15=I Cover The Waterfront  [1952]
EXTD=
EXTT0=
EXTT1=
EXTT2=
EXTT3=
EXTT4=
EXTT5=
EXTT6=
EXTT7=
EXTT8=
EXTT9=
EXTT10=
EXTT11=
EXTT12=
EXTT13=
EXTT14=
EXTT15=
PLAYORDER=
